<svg width="107" height="107" viewBox="0 0 107 107" fill="none" xmlns="http://www.w3.org/2000/svg">
<g filter="url(#filter0_d_1_2492)">
<path d="M48.4113 6.30137C51.1874 3.40937 55.8126 3.40936 58.5887 6.30137L60.7297 8.53182C62.4583 10.3325 65.0097 11.0856 67.439 10.5122L70.4238 9.80759C74.3092 8.89043 78.1808 11.3777 78.9618 15.2928L79.5959 18.4719C80.0799 20.8984 81.7999 22.8938 84.1284 23.7304L87.136 24.8109C90.8645 26.1504 92.7588 30.2972 91.3303 33.9926L90.1258 37.1085C89.2401 39.3996 89.6101 41.9865 91.1024 43.9375L93.1241 46.5804C95.5259 49.7204 94.8787 54.2209 91.6893 56.5568L89.0484 58.491C87.0613 59.9463 85.9772 62.3327 86.1884 64.7866L86.4722 68.0832C86.8131 72.045 83.8137 75.5054 79.8437 75.7305L76.73 75.9071C74.2474 76.0478 72.0223 77.4853 70.8735 79.6906L69.4132 82.4938C67.5631 86.0452 63.1313 87.346 59.6554 85.358L57.002 83.8404C54.8322 82.5994 52.1678 82.5994 49.998 83.8404L47.3446 85.358C43.8687 87.346 39.4369 86.0452 37.5868 82.4938L36.1265 79.6906C34.9777 77.4853 32.7526 76.0478 30.27 75.9071L27.1563 75.7305C23.1863 75.5054 20.1869 72.045 20.5279 68.0832L20.8116 64.7866C21.0228 62.3327 19.9387 59.9463 17.9516 58.491L15.3107 56.5568C12.1213 54.2209 11.4741 49.7204 13.8759 46.5804L15.8976 43.9375C17.3899 41.9865 17.7599 39.3997 16.8742 37.1085L15.6697 33.9926C14.2412 30.2972 16.1355 26.1504 19.864 24.8109L22.8716 23.7304C25.2001 22.8938 26.9201 20.8984 27.4041 18.4719L28.0382 15.2928C28.8192 11.3777 32.6908 8.89043 36.5763 9.80759L39.561 10.5122C41.9903 11.0856 44.5417 10.3325 46.2702 8.53182L48.4113 6.30137Z" fill="url(#paint0_linear_1_2492)"/>
<path d="M48.4113 6.30137C51.1874 3.40937 55.8126 3.40936 58.5887 6.30137L60.7297 8.53182C62.4583 10.3325 65.0097 11.0856 67.439 10.5122L70.4238 9.80759C74.3092 8.89043 78.1808 11.3777 78.9618 15.2928L79.5959 18.4719C80.0799 20.8984 81.7999 22.8938 84.1284 23.7304L87.136 24.8109C90.8645 26.1504 92.7588 30.2972 91.3303 33.9926L90.1258 37.1085C89.2401 39.3996 89.6101 41.9865 91.1024 43.9375L93.1241 46.5804C95.5259 49.7204 94.8787 54.2209 91.6893 56.5568L89.0484 58.491C87.0613 59.9463 85.9772 62.3327 86.1884 64.7866L86.4722 68.0832C86.8131 72.045 83.8137 75.5054 79.8437 75.7305L76.73 75.9071C74.2474 76.0478 72.0223 77.4853 70.8735 79.6906L69.4132 82.4938C67.5631 86.0452 63.1313 87.346 59.6554 85.358L57.002 83.8404C54.8322 82.5994 52.1678 82.5994 49.998 83.8404L47.3446 85.358C43.8687 87.346 39.4369 86.0452 37.5868 82.4938L36.1265 79.6906C34.9777 77.4853 32.7526 76.0478 30.27 75.9071L27.1563 75.7305C23.1863 75.5054 20.1869 72.045 20.5279 68.0832L20.8116 64.7866C21.0228 62.3327 19.9387 59.9463 17.9516 58.491L15.3107 56.5568C12.1213 54.2209 11.4741 49.7204 13.8759 46.5804L15.8976 43.9375C17.3899 41.9865 17.7599 39.3997 16.8742 37.1085L15.6697 33.9926C14.2412 30.2972 16.1355 26.1504 19.864 24.8109L22.8716 23.7304C25.2001 22.8938 26.9201 20.8984 27.4041 18.4719L28.0382 15.2928C28.8192 11.3777 32.6908 8.89043 36.5763 9.80759L39.561 10.5122C41.9903 11.0856 44.5417 10.3325 46.2702 8.53182L48.4113 6.30137Z" fill="url(#paint1_linear_1_2492)" fill-opacity="0.1"/>
<path d="M22.9932 45.5961C22.9932 28.7477 36.6514 15.0895 53.4998 15.0895C70.3481 15.0895 84.0063 28.7477 84.0063 45.5961V46.2235C84.0063 63.0718 70.3481 76.7301 53.4998 76.7301C36.6514 76.7301 22.9932 63.0718 22.9932 46.2235V45.5961Z" fill="black" fill-opacity="0.04"/>
<path d="M25.6269 45.5961C25.6269 30.2023 38.106 17.7232 53.4998 17.7232C68.8935 17.7232 81.3726 30.2023 81.3726 45.5961V46.2235C81.3726 61.6173 68.8935 74.0964 53.4998 74.0964C38.106 74.0964 25.6269 61.6173 25.6269 46.2235V45.5961Z" stroke="white" stroke-opacity="0.3" stroke-width="5.26742"/>
<path opacity="0.8" d="M48.4724 51.4791L42.6148 45.5613C42.2994 45.2419 41.8712 45.0624 41.4247 45.0624C40.9782 45.0624 40.55 45.2419 40.2346 45.5613C39.5763 46.2264 39.5763 47.3008 40.2346 47.9659L47.2907 55.0946C47.9491 55.7597 49.0126 55.7597 49.6709 55.0946L67.5307 37.0512C68.189 36.3861 68.189 35.3116 67.5307 34.6465C67.2153 34.3272 66.7871 34.1477 66.3406 34.1477C65.894 34.1477 65.4659 34.3272 65.1505 34.6465L48.4724 51.4791Z" fill="white" stroke="#FDFDFD" stroke-width="1.05348"/>
<path d="M53.5 18.453C53.5 16.6952 54.9287 15.2533 56.6772 15.4339C62.1974 16.0041 67.4838 18.0526 71.9662 21.3905C77.3028 25.3643 81.2151 30.9536 83.122 37.3281C85.0288 43.7026 84.8285 50.5222 82.5507 56.7738C80.273 63.0254 76.0393 68.3754 70.4787 72.0291C64.918 75.6829 58.3271 77.4454 51.685 77.0548C45.0429 76.6642 38.7039 74.1414 33.6098 69.8611C28.5157 65.5809 24.9383 59.7715 23.4089 53.2961C22.1243 47.8571 22.3422 42.1918 24.0098 36.8987C24.538 35.2222 26.4286 34.4831 28.042 35.1807C29.6554 35.8784 30.3758 37.7489 29.8926 39.4389C28.7426 43.4606 28.6344 47.7279 29.6039 51.833C30.8185 56.9753 33.6594 61.5886 37.7047 64.9877C41.7501 68.3867 46.784 70.3901 52.0587 70.7003C57.3333 71.0105 62.5673 69.6108 66.9832 66.7093C71.399 63.8078 74.7611 59.5592 76.5699 54.5947C78.3787 49.6301 78.5378 44.2146 77.0235 39.1524C75.5092 34.0903 72.4024 29.6516 68.1645 26.4959C64.7814 23.9767 60.8217 22.3824 56.6739 21.8417C54.9309 21.6145 53.5 20.2108 53.5 18.453Z" fill="white" fill-opacity="0.5"/>
</g>
<defs>
<filter id="filter0_d_1_2492" x="-2.5" y="-3" width="112" height="112" filterUnits="userSpaceOnUse" color-interpolation-filters="sRGB">
<feFlood flood-opacity="0" result="BackgroundImageFix"/>
<feColorMatrix in="SourceAlpha" type="matrix" values="0 0 0 0 0 0 0 0 0 0 0 0 0 0 0 0 0 0 127 0" result="hardAlpha"/>
<feOffset dy="8"/>
<feGaussianBlur stdDeviation="6"/>
<feComposite in2="hardAlpha" operator="out"/>
<feColorMatrix type="matrix" values="0 0 0 0 0.917647 0 0 0 0 0.690196 0 0 0 0 0.12549 0 0 0 0.4 0"/>
<feBlend mode="normal" in2="BackgroundImageFix" result="effect1_dropShadow_1_2492"/>
<feBlend mode="normal" in="SourceGraphic" in2="effect1_dropShadow_1_2492" result="shape"/>
</filter>
<linearGradient id="paint0_linear_1_2492" x1="24.9515" y1="9.24105" x2="73.2191" y2="85.3213" gradientUnits="userSpaceOnUse">
<stop stop-color="#FFE092"/>
<stop offset="1" stop-color="#E3A302"/>
</linearGradient>
<linearGradient id="paint1_linear_1_2492" x1="-5.61263" y1="-5.87476" x2="61.2352" y2="113.443" gradientUnits="userSpaceOnUse">
<stop stop-color="white"/>
<stop offset="1" stop-color="white" stop-opacity="0"/>
</linearGradient>
</defs>
</svg>
