<svg width="212" height="50" viewBox="0 0 212 50" fill="none" xmlns="http://www.w3.org/2000/svg">
<path fill-rule="evenodd" clip-rule="evenodd" d="M19.4204 11.2355L31 11.583L21.7119 18.6487L24.9689 30L15.4396 23.166L5.79 29.7683L9.28778 18.5328L0 11.2355L11.7004 11.1197L15.6807 0L19.4204 11.2355ZM111.698 23.6309L127.329 24.0282L114.878 33.8307L119.249 49.594L106.532 40.0565L93.6832 49.3291L98.3195 33.6982L86 23.6309L101.499 23.4984L106.797 8L111.698 23.6309ZM212 11.583L200.42 11.2355L196.681 0L192.7 11.1197L181 11.2355L190.288 18.5328L186.79 29.7683L196.44 23.166L205.969 30L202.712 18.6487L212 11.583ZM64.3271 16.8491L77.0436 17.2465L66.8435 25.3269L70.4203 38.3084L59.9555 30.493L49.3585 38.0435L53.1997 25.1944L43 16.8491L55.8491 16.7166L60.2203 4L64.3271 16.8491ZM169.371 17.2465L156.522 16.8491L152.416 4L148.044 16.7166L135.195 16.8491L145.395 25.1944L141.553 38.0435L152.15 30.493L162.615 38.3084L159.039 25.3269L169.371 17.2465Z" fill="url(#paint0_linear_1_2481)"/>
<defs>
<linearGradient id="paint0_linear_1_2481" x1="106" y1="0" x2="106" y2="49.594" gradientUnits="userSpaceOnUse">
<stop stop-color="#FFD685"/>
<stop offset="1" stop-color="#E4AD3B"/>
</linearGradient>
</defs>
</svg>
